<?xml version="1.0" encoding="UTF-8" standalone="no"?>
<!-- Uploaded to: SVG Repo, www.svgrepo.com, Generator: SVG Repo Mixer Tools -->

<svg
   fill="#000000"
   height="669.98322"
   width="814.97754"
   version="1.1"
   id="Layer_1"
   viewBox="0 0 315.8038 259.6185"
   xml:space="preserve"
   sodipodi:docname="tweeter.svg"
   inkscape:version="1.2.2 (b0a8486541, 2022-12-01)"
   xmlns:inkscape="http://www.inkscape.org/namespaces/inkscape"
   xmlns:sodipodi="http://sodipodi.sourceforge.net/DTD/sodipodi-0.dtd"
   xmlns="http://www.w3.org/2000/svg"
   xmlns:svg="http://www.w3.org/2000/svg"><sodipodi:namedview
   id="namedview5"
   pagecolor="#ffffff"
   bordercolor="#666666"
   borderopacity="1.0"
   inkscape:showpageshadow="2"
   inkscape:pageopacity="0.0"
   inkscape:pagecheckerboard="0"
   inkscape:deskcolor="#d1d1d1"
   showgrid="false"
   inkscape:zoom="1.2149558"
   inkscape:cx="401.24916"
   inkscape:cy="395.89917"
   inkscape:window-width="1844"
   inkscape:window-height="1131"
   inkscape:window-x="0"
   inkscape:window-y="0"
   inkscape:window-maximized="1"
   inkscape:current-layer="Layer_1" /><defs
   id="defs7">
	
</defs>

<path
   style="fill:#ffff00;fill-opacity:1;stroke:#000000;stroke-width:5.8125;stroke-dasharray:none;stroke-opacity:1"
   d="m 9.9262682,32.19725 c 4.8699998,2.16 9.8769998,3.983 14.9929998,5.463 -6.057,-6.85 -10.675,-14.91 -13.494,-23.73 -0.632,-1.977 0.023,-4.141 1.648,-5.434 1.623,-1.294 3.878,-1.449 5.665,-0.39 10.865,6.444 22.587,11.075 34.878,13.783 12.381,-12.098 29.197,-18.983 46.581002,-18.983 36.695,0 66.549,29.853 66.549,66.547 0,2.89 -0.183,5.764 -0.545,8.598 45.535,-3.998 87.868,-26.379 116.938,-62.038 1.036,-1.271 2.632,-1.956 4.266,-1.825 1.635,0.128 3.104,1.05 3.93,2.467 5.896,10.117 9.013,21.688 9.013,33.461 0,16.035 -5.725,31.249 -15.838,43.137004 3.075,-1.065 6.059,-2.396 8.907,-3.977 1.529,-0.851 3.395,-0.838 4.914,0.033 1.52,0.871 2.473,2.473 2.513,4.224 0.007,0.295 0.007,0.59 0.007,0.889 0,23.934996 -12.882,45.483996 -32.577,57.228996 1.692,-0.169 3.383,-0.414 5.063,-0.735 1.732,-0.331 3.513,0.276 4.681,1.597 1.17,1.32 1.557,3.16 1.018,4.84 -7.29,22.76 -26.059,39.501 -48.749,44.605 18.819,11.787 40.34,17.961 62.932,17.961 4.714,0 9.455,-0.277 14.095,-0.826 2.305,-0.274 4.509,1.087 5.294,3.279 0.785,2.193 -0.047,4.638 -2.008,5.895 -29.023,18.609 -62.582,28.445 -97.047,28.445 -67.754,0 -110.139,-31.95 -133.764002,-58.753 -29.46,-33.421 -46.356,-77.658 -46.356,-121.367 0,-1.826 0.028,-3.67 0.084,-5.508 -11.623,-8.757 -21.63,-19.355 -29.7729998,-31.536 -1.237,-1.85 -1.103,-4.295 0.33,-5.998 1.431,-1.704 3.816,-2.255 5.852,-1.353 z"
   id="path290" /><path
   style="fill:#000000;fill-opacity:1;stroke:#000000;stroke-width:5.8125;stroke-dasharray:none;stroke-opacity:1"
   d="M 88.067158,64.282507 A 14.017271,14.017271 0 0 0 102.08443,78.299778 14.017271,14.017271 0 0 0 116.1017,64.282507 14.017271,14.017271 0 0 0 102.08443,50.265236 14.017271,14.017271 0 0 0 88.067158,64.282507 Z"
   id="path392" /></svg>
